<?xml version="1.0" encoding="UTF-8" standalone="no"?>
<!-- Created with Inkscape (http://www.inkscape.org/) -->

<svg
   width="210mm"
   height="297mm"
   viewBox="0 0 210 297"
   version="1.1"
   id="svg1"
   xml:space="preserve"
   inkscape:version="1.4.3 (0d15f75, 2025-12-25)"
   sodipodi:docname="git_panel_logo.svg"
   xmlns:inkscape="http://www.inkscape.org/namespaces/inkscape"
   xmlns:sodipodi="http://sodipodi.sourceforge.net/DTD/sodipodi-0.dtd"
   xmlns="http://www.w3.org/2000/svg"
   xmlns:svg="http://www.w3.org/2000/svg"><sodipodi:namedview
     id="namedview1"
     pagecolor="#505050"
     bordercolor="#eeeeee"
     borderopacity="1"
     inkscape:showpageshadow="0"
     inkscape:pageopacity="0"
     inkscape:pagecheckerboard="0"
     inkscape:deskcolor="#505050"
     inkscape:document-units="mm"
     inkscape:zoom="0.35355339"
     inkscape:cx="111.72287"
     inkscape:cy="756.60425"
     inkscape:window-width="1920"
     inkscape:window-height="1017"
     inkscape:window-x="-8"
     inkscape:window-y="-8"
     inkscape:window-maximized="1"
     inkscape:current-layer="layer1" /><defs
     id="defs1"><inkscape:path-effect
       effect="bspline"
       id="path-effect8"
       is_visible="true"
       lpeversion="1.3"
       weight="33.333333"
       steps="2"
       helper_size="0"
       apply_no_weight="true"
       apply_with_weight="true"
       only_selected="false"
       uniform="false" /><inkscape:path-effect
       effect="bspline"
       id="path-effect5"
       is_visible="true"
       lpeversion="1.3"
       weight="33.333333"
       steps="2"
       helper_size="0"
       apply_no_weight="true"
       apply_with_weight="true"
       only_selected="false"
       uniform="false" /><inkscape:path-effect
       effect="bspline"
       id="path-effect4"
       is_visible="true"
       lpeversion="1.3"
       weight="33.333333"
       steps="2"
       helper_size="0"
       apply_no_weight="true"
       apply_with_weight="true"
       only_selected="false"
       uniform="false" /><inkscape:path-effect
       effect="bspline"
       id="path-effect3"
       is_visible="true"
       lpeversion="1.3"
       weight="33.333333"
       steps="2"
       helper_size="0"
       apply_no_weight="true"
       apply_with_weight="true"
       only_selected="false"
       uniform="false" /><inkscape:path-effect
       effect="bspline"
       id="path-effect2"
       is_visible="true"
       lpeversion="1.3"
       weight="33.333333"
       steps="2"
       helper_size="0"
       apply_no_weight="true"
       apply_with_weight="true"
       only_selected="false"
       uniform="false" /></defs><g
     inkscape:label="Camada 1"
     inkscape:groupmode="layer"
     id="layer1"><path
       id="path1"
       style="fill:#f24e0e;fill-opacity:1;stroke-width:0.600001;stroke-miterlimit:0.7"
       d="M 46.516982 -10.763467 L -33.558576 35.947011 L -33.261075 128.85185 L 47.111986 175.04567 L 127.18698 128.33519 L 126.88948 35.43035 L 46.516982 -10.763467 z M 46.905151 -0.38421311 L 118.93116 41.012267 L 119.1975 124.26929 L 47.438387 166.12874 L -24.587625 124.73226 L -24.854526 41.475783 L 46.905151 -0.38421311 z M 46.500549 8.9573347 L 46.454082 8.9847293 C 46.493912 8.9806793 46.533122 8.9866198 46.579316 9.0022618 L 46.500549 8.9573347 z M 44.669638 10.031202 L 3.0244999 34.497291 C 3.1002939 34.591941 3.0939159 34.585131 3.3180349 34.868761 C 3.6482054 35.286607 4.2956392 36.140246 4.8990439 36.979787 C 5.5024498 37.819327 6.0617513 38.644792 6.7917214 39.407493 C 7.5216916 40.170194 8.422522 40.870164 9.3791362 41.388121 C 10.335751 41.906066 11.348186 42.242181 12.260653 42.449934 C 13.173118 42.657687 13.985641 42.736982 15.257203 42.768259 C 16.528765 42.799609 18.259166 42.782419 19.674962 42.901944 C 21.090757 43.021475 22.191671 43.277655 23.233649 43.735835 C 24.275626 44.194026 25.25867 44.854605 26.053398 45.529084 C 26.848126 46.203552 27.454552 46.892156 27.975543 47.714622 C 28.496533 48.537089 28.932279 49.49325 29.21485 50.44093 C 29.49742 51.38861 29.626445 52.32766 29.697086 53.622535 C 29.767736 54.91741 29.779566 56.568123 29.785486 58.366726 C 29.791386 60.165329 29.791486 62.111986 29.797386 63.110918 C 29.803286 64.109849 29.815296 64.160632 30.018388 64.015486 C 30.221482 63.87034 30.615801 63.529198 31.157394 63.053937 C 31.698988 62.578666 32.387335 61.969633 32.940704 61.340681 C 33.494074 60.711739 33.912378 60.063051 34.174345 59.51949 C 34.436312 58.975918 34.54219 58.537548 34.615781 57.33943 C 34.689371 56.141312 34.730727 54.182998 34.748381 52.660438 C 34.766001 51.137877 34.759845 50.051234 34.771615 49.117772 C 34.783385 48.18432 34.813125 47.404399 34.945583 46.601855 C 35.078037 45.79931 35.313425 44.974208 35.58422 44.208665 C 35.855013 43.443123 36.160846 42.737122 36.75836 41.826434 C 37.355875 40.915756 38.245012 39.800436 39.207507 38.801525 C 40.170013 37.802614 41.206092 36.920002 41.874256 36.262597 C 42.54242 35.605192 42.842717 35.172926 43.17533 34.555367 C 43.507942 33.937807 43.872812 33.135029 44.102402 32.452012 C 44.331991 31.768997 44.425961 31.205445 44.473004 30.212232 C 44.520044 29.219019 44.520087 27.796218 44.487737 24.406776 C 44.455367 21.017334 44.390757 15.661571 44.36137 12.9679 C 44.332702 10.344511 44.337658 10.246135 44.669638 10.031202 z M 49.00523 10.418561 C 49.005933 10.469731 49.003796 10.473022 49.009196 10.483212 C 49.012196 10.517772 49.013493 10.533272 49.023363 12.567391 C 49.033163 14.601505 49.057693 18.585685 49.074363 21.873874 C 49.091033 25.162064 49.099623 27.753844 49.008063 29.685709 C 48.916493 31.617574 48.724734 32.889134 48.38756 34.020077 C 48.050385 35.151022 47.567602 36.141112 47.001485 37.022522 C 46.435368 37.903932 45.786282 38.676587 44.937106 39.549945 C 44.087931 40.423303 43.038641 41.397347 42.222758 42.202287 C 41.406885 43.007228 40.824043 43.643133 40.370314 44.564795 C 39.916585 45.486446 39.592391 46.693953 39.409241 48.392364 C 39.226037 50.090785 39.184142 52.280017 39.163307 54.111254 C 39.142497 55.942502 39.142837 57.415689 38.963839 58.647247 C 38.784845 59.878815 38.426745 60.868986 37.9189 61.810771 C 37.411056 62.752556 36.753382 63.646042 35.787654 64.603922 C 34.821927 65.56179 33.547895 66.584064 32.602969 67.513773 C 31.658044 68.443482 31.042453 69.280614 30.655325 70.202276 C 30.268195 71.123927 30.109563 72.130014 30.147022 73.055694 C 30.184482 73.981374 30.417998 74.826515 30.800959 75.559009 C 31.183921 76.291504 31.716376 76.911351 32.240867 77.36212 C 32.765358 77.812879 33.28157 78.094303 33.997544 78.404209 C 34.713517 78.714105 35.629511 79.05239 36.545292 79.464927 C 37.461074 79.877454 38.376378 80.364315 38.938339 80.724529 C 39.5003 81.084733 39.708776 81.317892 39.846144 81.42857 C 39.983556 81.539237 40.049873 81.52729 40.058645 80.925605 C 40.066945 80.323912 40.016635 79.13288 40.174813 77.748383 C 40.332993 76.363887 40.699679 74.786096 41.40732 72.966935 C 42.114971 71.147774 43.163453 69.086941 44.487171 67.267769 C 45.810899 65.448608 47.409546 63.871049 48.708295 62.679727 C 50.007043 61.488416 51.006038 60.68371 52.512916 59.846581 C 54.019784 59.009441 56.034362 58.140332 57.607846 57.456131 C 59.18133 56.77193 60.313687 56.272523 61.2045 55.507829 C 62.095312 54.743135 62.744633 53.712899 63.119277 52.875759 C 63.49391 52.038619 63.593953 51.394617 63.635513 50.211363 C 63.677183 49.02811 63.660727 47.305676 63.651947 45.937263 C 63.643647 44.56886 63.643847 43.55446 63.851981 42.274609 C 64.060111 40.994757 64.476212 39.449711 64.950754 38.145699 C 65.425296 36.841688 65.958038 35.779162 66.890465 34.386617 C 67.822904 32.994071 69.154819 31.271626 70.486553 29.64133 C 71.818297 28.011034 73.149681 26.472865 73.824238 25.698155 C 74.498785 24.923446 74.520321 24.909668 74.524076 24.904809 C 74.524804 24.903879 74.610436 24.951829 74.75471 25.033015 L 49.00523 10.418561 z M 77.624894 26.661896 C 77.870627 26.801732 78.070863 26.91557 78.070863 26.91557 C 78.064063 26.93021 78.064763 26.92683 77.913895 27.127056 C 77.763018 27.32728 77.446889 27.713676 76.822489 28.462267 C 76.1981 29.210859 75.265664 30.321366 74.258308 31.552923 C 73.250952 32.784479 72.168744 34.137167 71.319557 35.304335 C 70.470371 36.471501 69.854127 37.453305 69.312979 38.55607 C 68.771842 39.658841 68.305613 40.882236 68.097472 42.282827 C 67.88931 43.683429 67.93944 45.261253 67.914438 47.040168 C 67.889468 48.819082 67.789715 50.799076 67.381768 52.513603 C 66.973832 54.228129 66.257795 55.676716 65.192156 56.884132 C 64.126528 58.091538 62.711263 59.057546 60.713197 60.176411 C 58.715131 61.295277 56.134684 62.567041 54.361394 63.64566 C 52.588092 64.724279 51.622327 65.610076 50.498405 66.769188 C 49.374494 67.9283 48.092496 69.360662 47.101786 70.898098 C 46.111075 72.435533 45.411697 74.077632 45.020407 75.72776 C 44.629117 77.377888 44.545674 79.036338 44.495671 81.483359 C 44.445781 83.930369 44.429437 87.165893 44.404437 90.94106 C 44.379877 94.716226 44.345993 99.030691 44.371003 103.23245 C 44.396003 107.43425 44.478975 111.52285 44.437304 113.44679 C 44.395664 115.37075 44.575422 115.56343 43.738033 114.5097 C 43.245984 113.89053 42.431009 112.89179 41.823255 112.23979 C 41.215512 111.58778 40.8291 111.2679 40.574315 111.04812 C 40.217482 110.74031 40.24975 110.65366 40.199746 109.55896 C 40.150186 108.46425 40.132609 106.43599 40.141379 103.30478 C 40.149679 100.17358 40.183389 95.939682 40.025212 93.025786 C 39.867031 90.111891 39.517053 88.518432 38.984239 87.246628 C 38.451425 85.974813 37.735296 85.024766 36.73626 84.260072 C 35.737225 83.495368 34.455443 82.916153 33.214973 82.344644 C 31.974504 81.773135 30.775452 81.209283 29.668186 80.315802 C 28.56092 79.422322 27.545629 78.198993 26.879603 77.088174 C 26.213579 75.977356 25.897294 74.979431 25.722463 74.279135 C 25.547632 73.578829 25.514141 73.176083 25.497495 71.316687 C 25.480845 69.457279 25.480892 66.140908 25.472562 63.146531 C 25.464262 60.152142 25.447268 57.480158 25.430628 55.596587 C 25.413978 53.713017 25.397578 52.618336 25.172793 51.70875 C 24.948013 50.799165 24.515295 50.074733 23.940853 49.438836 C 23.366419 48.802923 22.650508 48.255714 21.892908 47.853239 C 21.135306 47.450774 20.335603 47.193072 19.278293 47.064275 C 18.220982 46.935478 16.905971 46.935292 15.490671 46.846762 C 14.07537 46.758222 12.56036 46.581487 11.261614 46.315856 C 9.9628649 46.050224 8.8804694 45.695921 7.9896616 45.317597 C 7.0988527 44.939274 6.3995509 44.536523 5.6419482 43.973072 C 4.8843455 43.40961 4.0683441 42.68547 3.0443333 41.42976 C 2.0203225 40.174061 0.78851709 38.387185 0.1724502 37.493709 C -0.44364301 36.600229 -0.4438509 36.600209 -0.45372005 36.58914 C -0.46361105 36.57807 -0.48315149 36.555564 -0.48885359 36.541474 C -0.49442259 36.527764 -0.47994559 36.517834 0.052316176 36.203425 L -17.127416 46.280791 L -17.005581 63.948096 C -16.978101 63.977456 -16.949184 64.009023 -16.918314 64.042333 C -16.501237 64.492343 -15.763832 65.275625 -14.796702 66.222393 C -13.829573 67.16916 -12.632786 68.279536 -11.587084 69.150324 C -10.541382 70.021112 -9.6464366 70.652271 -8.6732671 71.306825 C -7.7000976 71.961378 -6.6483784 72.639107 -5.4999156 73.369636 C -4.3514528 74.100164 -3.1066949 74.883085 -1.8312946 75.695434 C -0.55589432 76.507783 0.74968773 77.34951 1.9948606 78.226145 C 3.2400336 79.102779 4.4249257 80.014456 5.2469792 80.768361 C 6.0690328 81.522265 6.5285958 82.118365 6.7945548 82.416418 C 7.0605137 82.714471 7.1330449 82.714488 7.1934904 81.94304 C 7.2539354 81.171592 7.3022905 79.628948 7.3204244 77.899054 C 7.3385584 76.169159 7.3260947 74.25212 7.3079577 72.510542 C 7.2898211 70.768965 7.265837 69.202741 7.2053905 68.162476 C 7.144944 67.122211 7.0484291 66.608119 6.7582879 65.959405 C 6.4681467 65.31069 5.9844078 64.527585 5.6459149 64.030827 C 5.3074219 63.53407 5.1140036 63.3235 4.9387108 63.218304 C 4.7634181 63.113108 4.6062673 63.113108 4.2859071 63.165707 C 3.9655469 63.218305 3.4821866 63.323684 2.9502661 63.311994 C 2.4183456 63.300303 1.8380866 63.171556 1.2638564 62.885186 C 0.68962643 62.598817 0.12107268 62.15485 -0.32621932 61.576274 C -0.77351133 60.997697 -1.0995339 60.284355 -1.2385579 59.54798 C -1.3775819 58.811605 -1.3292279 58.052057 -1.0934904 57.379974 C -0.85775273 56.707891 -0.43464485 56.123658 0.030782719 55.685346 C 0.49621029 55.247033 1.0039392 54.954642 1.5721249 54.732563 C 2.1403105 54.510484 2.7689254 54.358351 3.4217355 54.358353 C 4.0745455 54.358355 4.7511394 54.510664 5.3314131 54.773655 C 5.9116867 55.036645 6.3954275 55.410483 6.8245883 55.889709 C 7.2537491 56.368935 7.6283143 56.953526 7.815694 57.508728 C 8.0030736 58.06393 8.0034517 58.589529 7.9550947 59.022004 C 7.9067377 59.45448 7.8096469 59.7938 7.815694 60.033412 C 7.821744 60.273024 7.9305335 60.413094 8.1964961 60.693621 C 8.4624587 60.974147 8.8859433 61.394919 9.2788357 61.920898 C 9.6717281 62.446876 10.034014 63.078037 10.408775 63.779345 C 10.783537 64.480653 11.170758 65.251887 11.364181 66.087611 C 11.557603 66.923336 11.557605 67.823801 11.545515 72.049217 C 11.533425 76.274634 11.509065 83.824691 11.503015 87.652616 C 11.497015 91.48054 11.509015 91.585925 11.756883 91.74372 C 12.004711 91.901516 12.488261 92.111719 12.917423 92.386397 C 13.346586 92.661076 13.721337 93.000397 14.05983 93.415337 C 14.398322 93.830277 14.700353 94.320995 14.960268 94.846977 C 15.220183 95.372959 15.437971 95.93399 15.528638 96.547632 C 15.619308 97.161274 15.583038 97.827683 15.419837 98.517301 C 15.256633 99.20692 14.966695 99.919522 14.555666 100.57409 C 14.144637 101.22864 13.612355 101.82474 13.092524 102.23968 C 12.572694 102.65461 12.065152 102.88857 11.811283 103.03467 C 11.557415 103.18076 11.557414 103.23938 11.611816 103.82966 C 11.666216 104.41993 11.774826 105.54181 11.968251 106.41844 C 12.161676 107.29507 12.439903 107.92624 12.989957 108.61001 C 13.540011 109.29378 14.362044 110.03032 15.256637 110.57968 C 16.151229 111.12903 17.118139 111.491 18.097353 111.67217 C 19.076567 111.85334 20.067834 111.8537 21.542706 111.84202 C 23.017578 111.83032 24.976335 111.80688 26.668802 111.87708 C 28.361269 111.94718 29.787361 112.11066 31.207828 112.4321 C 32.628294 112.75353 34.042861 113.2331 35.547953 114.09221 C 37.053045 114.95132 38.648952 116.19007 39.761143 117.3297 C 40.873335 118.46933 41.501571 119.5092 41.997223 120.38584 C 42.492875 121.26247 42.855535 121.97581 43.157763 122.85244 C 43.459991 123.72908 43.702143 124.76914 43.895567 125.82695 C 44.088991 126.88475 44.233681 127.96023 44.282036 129.49727 C 44.330396 131.03431 44.282028 133.03294 44.263903 136.93106 C 44.245773 140.82918 44.258236 146.62654 44.258236 149.92266 C 44.258236 153.21878 44.246152 154.01358 44.240102 154.41099 C 44.238802 154.49949 44.237836 154.56845 44.236136 154.62302 L 47.518855 156.48804 L 49.202431 155.50074 C 49.195431 155.13248 49.189244 154.44646 49.178064 153.17166 C 49.153884 150.41321 49.1059 144.89656 49.08173 138.43283 C 49.05755 131.9691 49.057543 124.55897 49.045463 119.83685 C 49.033383 115.11474 49.008993 113.08064 49.311231 111.05853 C 49.613472 109.03643 50.242069 107.02625 51.160842 105.29636 C 52.079615 103.56647 53.288677 102.11732 54.594295 100.83159 C 55.899913 99.545889 57.30183 98.423617 58.788786 97.617116 C 60.275741 96.810615 61.847264 96.319895 63.866148 95.957553 C 65.885032 95.595211 68.35114 95.361267 70.176584 95.092433 C 72.002029 94.823599 73.187095 94.51953 74.468542 93.911727 C 75.749989 93.303923 77.127727 92.392438 78.22783 91.270342 C 79.327933 90.148246 80.15016 88.815805 80.718345 87.483317 C 81.286529 86.15083 81.600848 84.818201 81.770084 83.637668 C 81.93932 82.457134 81.963323 81.428764 82.217187 80.224852 C 82.471051 79.020941 82.954603 77.641923 83.740395 76.356191 C 84.526188 75.07046 85.614174 73.877899 86.82308 73.012958 C 88.031985 72.148017 89.362122 71.610541 90.752369 71.283265 C 92.142616 70.955989 93.593265 70.839292 94.886792 70.745784 C 96.18032 70.652274 97.316475 70.581788 98.489113 70.172689 C 99.661751 69.763591 100.87081 69.015558 101.95883 67.963591 C 103.04685 66.911625 104.01394 65.555813 105.18658 63.931111 C 106.35923 62.306409 107.73716 60.413288 108.71637 59.174318 C 109.69558 57.935348 110.27563 57.350818 110.62435 57.113151 C 110.65775 57.090411 110.68912 57.070944 110.71842 57.055074 L 110.63795 45.398685 L 77.624894 26.661896 z M 83.910963 37.633969 C 84.212284 37.638102 84.528971 37.670946 84.870902 37.720536 C 85.554763 37.819716 86.341145 37.984925 86.990814 38.513882 C 87.640482 39.04284 88.153393 39.935837 88.392755 40.778865 C 88.632117 41.621893 88.597434 42.414973 88.375188 43.076174 C 88.152943 43.737375 87.742928 44.266416 87.315516 44.712725 C 86.888103 45.159035 86.443811 45.522607 86.272843 46.282982 C 86.101875 47.043358 86.20418 48.200734 86.221276 49.44048 C 86.238372 50.680226 86.169829 52.00263 85.947575 53.32503 C 85.72532 54.64743 85.349272 55.969362 84.426066 57.291763 C 83.50286 58.614165 82.032536 59.936616 80.510943 60.680471 C 78.98935 61.424326 77.416743 61.589472 75.741283 61.96966 C 74.065823 62.349848 72.287964 62.945354 70.988622 63.837969 C 69.68928 64.730584 68.868673 65.920439 68.475441 67.292425 C 68.082209 68.66441 68.116468 70.218019 68.065172 72.284263 C 68.013877 74.350506 67.876803 76.929573 67.415202 79.111537 C 66.9536 81.293501 66.167117 83.078571 65.31229 84.384444 C 64.457463 85.690316 63.534627 86.516796 62.030138 87.69042 C 60.525648 88.864044 58.439988 90.384355 56.986775 91.557985 C 55.533563 92.731616 54.712516 93.558531 54.148326 94.203205 C 53.584136 94.847879 53.276685 95.310559 52.49025 96.368472 C 51.703815 97.426384 50.438501 99.079167 49.805934 99.905658 C 49.301858 100.56427 49.199253 100.69819 49.165597 100.69627 C 49.16528 100.69622 49.164202 100.69634 49.163897 100.69627 C 49.163604 100.69617 49.162479 100.69583 49.162197 100.69572 C 49.156491 100.69277 49.152196 100.68433 49.148031 100.6749 C 49.122639 100.61739 49.071991 100.50211 49.06473 100.28096 C 49.057469 100.05982 49.093635 99.732525 49.184297 98.996159 C 49.27496 98.259792 49.42022 97.114527 49.571333 96.161916 C 49.722446 95.209306 49.879602 94.449398 50.260404 93.613674 C 50.641205 92.777949 51.245268 91.866275 51.879946 91.053925 C 52.514624 90.241576 53.179882 89.528965 54.24976 88.699088 C 55.319637 87.869211 56.794095 86.922469 58.009048 86.051677 C 59.224001 85.180885 60.179193 84.386098 60.989165 83.421798 C 61.799137 82.457499 62.4642 81.323385 62.899409 80.306488 C 63.334619 79.289591 63.539932 78.389791 63.672914 77.489779 C 63.805895 76.589767 63.866337 75.689599 63.872382 74.573353 C 63.878426 73.457107 63.829881 72.125022 63.829881 71.113967 C 63.829881 70.102911 63.878613 69.413317 63.969282 68.817206 C 64.059951 68.221096 64.192738 67.718323 64.380118 67.040394 C 64.567498 66.362465 64.809273 65.509413 65.141722 64.749661 C 65.474172 63.989908 65.897281 63.323687 66.356662 62.750953 C 66.816044 62.178219 67.311873 61.698825 67.867971 61.219597 C 68.424069 60.740368 69.040406 60.261339 69.874549 59.858087 C 70.708692 59.454834 71.760607 59.127567 73.017867 58.893798 C 74.275128 58.660029 75.737487 58.519772 76.940356 58.192497 C 78.143225 57.865221 79.086136 57.35076 79.805439 56.801401 C 80.524742 56.252041 81.020752 55.667636 81.359248 54.960486 C 81.697744 54.253335 81.879068 53.423291 81.975785 52.517438 C 82.072502 51.611584 82.084387 50.629783 82.096486 49.536909 C 82.108585 48.444035 82.12047 47.240523 82.126519 46.585966 C 82.132569 45.931409 82.132849 45.825752 82.042086 45.718106 C 81.951322 45.61046 81.769544 45.500341 81.490716 45.24692 C 81.211887 44.993499 80.835685 44.596901 80.527944 44.150589 C 80.220202 43.704277 79.981217 43.208475 79.86154 42.580332 C 79.741862 41.95219 79.741566 41.192152 80.015107 40.48136 C 80.288648 39.770569 80.835957 39.109409 81.383048 38.630035 C 81.93014 38.150662 82.476937 37.852775 83.041125 37.720536 C 83.323218 37.654416 83.609642 37.629836 83.910963 37.633969 z M 110.76432 63.658809 L 110.76375 63.659357 L 110.76318 63.659905 C 110.46399 64.002907 109.97652 64.590041 109.24564 65.544651 C 108.51476 66.499261 107.54054 67.821674 106.48483 69.086221 C 105.42911 70.350768 104.29213 71.557379 102.97997 72.499584 C 101.66781 73.441789 100.18044 74.119405 98.50498 74.511989 C 96.82952 74.904573 94.966112 75.011969 93.611218 75.152474 C 92.256325 75.292979 91.40975 75.466695 90.597668 75.805561 C 89.785586 76.144426 89.007902 76.648435 88.349688 77.338561 C 87.691475 78.028686 87.153158 78.904519 86.802679 79.908719 C 86.452201 80.912919 86.289643 82.045365 86.174243 83.136347 C 86.058842 84.22733 85.990534 85.276897 85.70844 86.405067 C 85.426346 87.533237 84.930493 88.73979 84.362032 89.925817 C 83.793571 91.111844 83.152228 92.27722 82.442721 93.1781 C 81.733215 94.078981 80.95571 94.715314 80.618044 95.037643 C 80.280378 95.359973 80.382687 95.368622 82.622356 95.360351 C 84.862024 95.352051 89.238697 95.327018 91.440306 95.285838 C 93.641915 95.244648 93.668592 95.186948 93.921754 94.891904 C 94.174915 94.596863 94.654832 94.064408 95.139527 93.687091 C 95.624222 93.309775 96.113823 93.08788 96.600402 92.944698 C 97.086982 92.801516 97.570343 92.737411 98.062977 92.740335 C 98.555611 92.743235 99.057478 92.813385 99.538019 92.977024 C 100.01856 93.140663 100.47793 93.397799 100.93429 93.801053 C 101.39066 94.204306 101.84399 94.753647 102.1039 95.387746 C 102.36381 96.021845 102.4303 96.740304 102.4031 97.435764 C 102.3759 98.131224 102.25464 98.803296 101.95543 99.408173 C 101.65623 100.01305 101.17873 100.55107 100.52289 100.97185 C 99.867061 101.39264 99.032938 101.69653 98.129278 101.74329 C 97.225617 101.79009 96.252849 101.57965 95.521463 101.18225 C 94.790076 100.78484 94.300102 100.20006 93.994854 99.90785 C 93.689606 99.615644 93.56894 99.616008 91.743474 99.569253 C 89.918009 99.522493 86.38807 99.428578 84.6261 99.416939 C 82.864131 99.405299 82.870178 99.475559 83.102892 99.756084 C 83.335605 100.03661 83.794978 100.52751 84.218098 101.08856 C 84.641218 101.6496 85.02768 102.28094 85.338971 102.9881 C 85.650262 103.69525 85.886185 104.47836 86.061475 105.092 C 86.236765 105.70564 86.351606 106.14942 86.551078 106.73677 C 86.75055 107.32412 87.03482 108.05499 87.427716 108.65987 C 87.820613 109.26474 88.322103 109.74359 88.999092 110.22574 C 89.676081 110.70789 90.528331 111.19313 91.619374 111.47658 C 92.710416 111.76002 94.039987 111.84184 95.248894 111.84476 C 96.457802 111.84776 97.545974 111.77189 98.600747 111.77189 C 99.65552 111.77189 100.67721 111.84769 101.5446 111.91489 C 102.41198 111.98209 103.12484 112.04054 103.96201 112.16034 C 104.79918 112.28015 105.76061 112.46113 106.73983 112.69783 C 107.71904 112.93452 108.71637 113.22709 109.45984 113.49008 C 110.20332 113.75307 110.69272 113.98665 110.98588 114.15905 C 111.03328 114.18695 111.07568 114.21319 111.11339 114.24069 L 110.76432 63.658809 z M -16.964781 69.822587 L -16.76248 99.15943 C -16.587043 99.035374 -16.278718 98.830427 -15.503906 98.423612 C -14.591173 97.944382 -13.031346 97.184467 -11.792218 96.681865 C -10.55309 96.179264 -9.6345394 95.933812 -8.6069667 95.752642 C -7.5793941 95.571471 -6.4430543 95.454954 -5.3066812 95.396512 C -4.170308 95.338072 -3.0339712 95.338065 -1.7706609 95.343915 C -0.50735072 95.349715 0.88286079 95.36145 1.8016262 95.37898 C 2.7203916 95.39651 3.1676772 95.419735 3.3973687 95.390485 C 3.6270601 95.361235 3.6393338 95.279635 3.8206711 94.940667 C 4.0020084 94.601701 4.3523907 94.005603 4.7755099 93.503 C 5.198629 93.000396 5.6940786 92.59131 6.1292843 92.310788 C 6.56449 92.030267 6.939433 91.877958 7.0965898 91.702629 C 7.2537467 91.527299 7.1933045 91.328792 6.9877892 90.779432 C 6.782274 90.230071 6.4317044 89.330271 5.899783 88.330905 C 5.3678616 87.331539 4.654443 86.232674 3.8263378 85.256687 C 2.9982326 84.280699 2.0553226 83.427654 0.7617869 82.439977 C -0.53174876 81.452301 -2.1756232 80.329877 -3.8922731 79.219472 C -5.608923 78.109067 -7.3978723 77.010747 -8.7458009 76.163334 C -10.093729 75.315921 -11.000759 74.719464 -11.913486 74.047377 C -12.826212 73.37529 -13.744954 72.627432 -14.597234 71.896904 C -15.449514 71.166375 -16.235099 70.453575 -16.730747 70.02695 C -16.817417 69.95235 -16.894949 69.886144 -16.964781 69.822587 z M 9.5015369 94.335247 C 7.6461182 94.335066 6.1418688 95.744822 6.141751 97.483978 C 6.1415441 99.22335 7.6458886 100.63344 9.5015369 100.63326 C 11.356964 100.63315 12.860963 99.223142 12.860756 97.483978 C 12.860638 95.745029 11.356734 94.335359 9.5015369 94.335247 z M 71.15069 99.464058 C 70.24421 99.447265 69.327543 99.462562 68.502641 99.490357 C 66.852486 99.545867 65.570701 99.650702 64.419218 99.890317 C 63.267735 100.12993 62.246425 100.50432 61.342767 100.93679 C 60.439109 101.36926 59.65334 101.8598 58.93102 102.45007 C 58.2087 103.04033 57.549858 103.73012 56.999809 104.32331 C 56.44976 104.91649 56.008519 105.41324 55.639801 106.03273 C 55.271083 106.65222 54.975101 107.39441 54.703096 108.15416 C 54.43109 108.91392 54.183083 109.69117 53.980592 110.46846 C 53.7781 111.24574 53.621131 112.02299 53.524422 113.1071 C 53.427712 114.19121 53.391434 115.58189 53.370288 118.2118 C 53.349138 120.84172 53.342888 124.71066 53.327788 129.05293 C 53.312688 133.3952 53.288688 138.21072 53.288688 142.39518 C 53.288688 146.57965 53.312488 150.13292 53.312488 151.91096 C 53.312487 152.45352 53.310288 152.83089 53.288688 153.10372 L 111.14739 119.16459 L 111.14229 118.48301 C 111.07509 118.49101 110.98745 118.46568 110.87085 118.42548 C 110.52328 118.30567 109.91849 118.06022 109.16291 117.78555 C 108.40734 117.51087 107.50088 117.20697 106.13179 116.92645 C 104.7627 116.64593 102.93126 116.38842 101.3899 116.27446 C 99.848546 116.1605 98.597175 116.18986 96.968171 116.15776 C 95.339167 116.12566 93.332616 116.03211 91.969576 115.87724 C 90.606537 115.72237 89.887069 115.50614 89.17986 115.21977 C 88.472652 114.9334 87.777738 114.5771 87.028214 114.02482 C 86.278689 113.47254 85.474601 112.72413 84.791568 111.93516 C 84.108535 111.14619 83.546596 110.31633 83.165792 109.51567 C 82.784987 108.71501 82.585335 107.9436 82.416088 107.20138 C 82.246842 106.45916 82.108014 105.74656 81.70605 104.94297 C 81.304086 104.13939 80.639399 103.24525 79.89894 102.51472 C 79.15848 101.78419 78.3425 101.21713 77.378392 100.72914 C 76.414284 100.24115 75.301943 99.832247 73.736405 99.630617 C 72.953806 99.529823 72.057722 99.480874 71.151257 99.464058 L 71.15069 99.464058 z M -2.5322653 99.504602 C -4.2670452 99.522152 -5.5849037 99.533812 -6.8179898 99.679927 C -8.0510759 99.826039 -9.1995103 100.10655 -10.118275 100.38123 C -11.037042 100.65591 -11.725719 100.92491 -12.59009 101.38661 C -13.45446 101.8483 -14.494475 102.50284 -15.159371 102.98207 C -15.824267 103.46129 -16.114394 103.765 -16.392445 104.01046 C -16.507974 104.11245 -16.621197 104.20457 -16.727347 104.27674 L -16.618546 120.04669 L 5.3535132 132.5304 C 5.4227692 132.4632 5.5210672 132.38842 5.6459149 132.29645 C 6.1536601 131.92241 7.0967667 131.26788 8.172696 130.3854 C 9.2486253 129.50292 10.457312 128.39237 11.575549 127.15339 C 12.693786 125.91441 13.721518 124.5469 14.646333 123.29624 C 15.571148 122.04557 16.393181 120.912 17.112481 119.95355 C 17.83178 118.9951 18.448309 118.21181 18.962091 117.6157 C 19.475873 117.01959 19.886701 116.61048 20.080131 116.37089 C 20.273561 116.1313 20.249568 116.06115 20.068231 116.03777 C 19.886894 116.01437 19.548231 116.03796 18.647589 115.92107 C 17.746947 115.80418 16.284402 115.54705 14.845801 114.99185 C 13.4072 114.43664 11.992814 113.58323 10.947112 112.68906 C 9.9014093 111.79489 9.2244395 110.86021 8.7166991 109.96604 C 8.2089587 109.07187 7.8700943 108.21846 7.6706265 107.11974 C 7.4711587 106.02103 7.4109062 104.6767 7.2960576 103.95786 C 7.181209 103.23903 7.0121594 103.14552 6.6857541 102.99357 C 6.3593489 102.84163 5.8758014 102.63124 5.3257464 102.11695 C 4.7756914 101.60265 4.1587853 100.78484 3.8444712 100.28809 C 3.5301571 99.791318 3.5182789 99.615629 2.4362965 99.539667 C 1.3543141 99.463707 -0.79748531 99.487052 -2.5322653 99.504602 z M 29.034082 116.71003 C 28.167928 116.70949 27.389614 116.84865 26.614402 117.14232 C 25.580785 117.53389 24.553244 118.20029 23.622384 118.98926 C 22.691525 119.77824 21.85741 120.6899 20.702901 122.12758 C 19.548392 123.56527 18.073184 125.52906 16.791745 127.18298 C 15.510306 128.83689 14.422701 130.18066 13.195658 131.3612 C 11.968615 132.54173 10.602199 133.55897 9.810372 134.16092 C 9.5120806 134.38768 9.2953524 134.55528 9.103168 134.66115 L 39.964011 152.19531 C 39.966711 152.04678 39.973915 151.8726 39.978745 151.66386 C 40.002925 150.62358 39.978362 148.71879 39.966278 146.15317 C 39.954198 143.58754 39.954191 140.36144 39.984411 137.15296 C 40.014631 133.94448 40.075268 130.75378 40.008778 128.67324 C 39.942288 126.59271 39.748683 125.62223 39.313474 124.41832 C 38.878265 123.2144 38.201492 121.77694 37.288763 120.60225 C 36.376033 119.42757 35.227421 118.51571 33.927843 117.87869 C 32.628265 117.24167 31.177994 116.87933 29.932821 116.75661 C 29.621527 116.72591 29.3228 116.71023 29.034082 116.71003 z "
       transform="matrix(0.91193182,0,0,0.94318756,65.726571,63.735261)" /></g></svg>
