<?xml version="1.0" encoding="UTF-8" standalone="no"?>
<!-- Created with Inkscape (http://www.inkscape.org/) -->

<svg
   width="210mm"
   height="297mm"
   viewBox="0 0 210 297"
   version="1.1"
   id="svg1"
   xml:space="preserve"
   inkscape:version="1.4.3 (0d15f75, 2025-12-25)"
   sodipodi:docname="git_panel_logo.svg"
   xmlns:inkscape="http://www.inkscape.org/namespaces/inkscape"
   xmlns:sodipodi="http://sodipodi.sourceforge.net/DTD/sodipodi-0.dtd"
   xmlns="http://www.w3.org/2000/svg"
   xmlns:svg="http://www.w3.org/2000/svg"><sodipodi:namedview
     id="namedview1"
     pagecolor="#505050"
     bordercolor="#eeeeee"
     borderopacity="1"
     inkscape:showpageshadow="0"
     inkscape:pageopacity="0"
     inkscape:pagecheckerboard="0"
     inkscape:deskcolor="#505050"
     inkscape:document-units="mm"
     inkscape:zoom="0.5"
     inkscape:cx="229"
     inkscape:cy="767"
     inkscape:window-width="1920"
     inkscape:window-height="1017"
     inkscape:window-x="-8"
     inkscape:window-y="-8"
     inkscape:window-maximized="1"
     inkscape:current-layer="layer1" /><defs
     id="defs1"><inkscape:path-effect
       effect="bspline"
       id="path-effect8"
       is_visible="true"
       lpeversion="1.3"
       weight="33.333333"
       steps="2"
       helper_size="0"
       apply_no_weight="true"
       apply_with_weight="true"
       only_selected="false"
       uniform="false" /><inkscape:path-effect
       effect="bspline"
       id="path-effect5"
       is_visible="true"
       lpeversion="1.3"
       weight="33.333333"
       steps="2"
       helper_size="0"
       apply_no_weight="true"
       apply_with_weight="true"
       only_selected="false"
       uniform="false" /><inkscape:path-effect
       effect="bspline"
       id="path-effect4"
       is_visible="true"
       lpeversion="1.3"
       weight="33.333333"
       steps="2"
       helper_size="0"
       apply_no_weight="true"
       apply_with_weight="true"
       only_selected="false"
       uniform="false" /><inkscape:path-effect
       effect="bspline"
       id="path-effect3"
       is_visible="true"
       lpeversion="1.3"
       weight="33.333333"
       steps="2"
       helper_size="0"
       apply_no_weight="true"
       apply_with_weight="true"
       only_selected="false"
       uniform="false" /><inkscape:path-effect
       effect="bspline"
       id="path-effect2"
       is_visible="true"
       lpeversion="1.3"
       weight="33.333333"
       steps="2"
       helper_size="0"
       apply_no_weight="true"
       apply_with_weight="true"
       only_selected="false"
       uniform="false" /></defs><g
     inkscape:label="Camada 1"
     inkscape:groupmode="layer"
     id="layer1"><path
       id="path1"
       style="fill:#f24e0e;fill-opacity:1;stroke-width:0.717636;stroke-miterlimit:0.7"
       d="m 104.44914,27.413746 -94.174505,56.81768 0.349882,113.007534 94.524393,56.18921 94.17385,-56.81768 -0.34989,-113.007525 z m 0.45651,12.625107 84.70768,50.35386 0.31324,101.272117 -84.39378,50.91696 L 20.825106,192.22796 20.511211,90.956513 Z m -0.47583,11.362868 -0.0547,0.03338 c 0.0469,-0.0051 0.093,0.0013 0.14729,0.02131 z m -2.15328,1.306238 -48.977626,29.760054 c 0.08913,0.115295 0.08163,0.106821 0.345218,0.451847 0.388304,0.508262 1.149732,1.546612 1.859377,2.567809 0.709649,1.02121 1.367426,2.025284 2.225924,2.953024 0.858495,0.92771 1.917935,1.77916 3.042981,2.40918 1.125047,0.63003 2.315741,1.03886 3.388866,1.29157 1.073124,0.2527 2.028709,0.34916 3.524156,0.38721 1.495447,0.0381 3.530519,0.0172 5.195597,0.16264 1.665075,0.14531 2.959826,0.45701 4.185267,1.01433 1.225432,0.55733 2.381568,1.36084 3.316229,2.18127 0.934649,0.82041 1.647848,1.65802 2.260569,2.65845 0.612721,1.00043 1.125194,2.163467 1.457522,3.316207 0.332314,1.15275 0.48406,2.29498 0.567142,3.87005 0.08307,1.57507 0.09694,3.58295 0.103996,5.77072 0.0064,2.1878 0.0077,4.55565 0.014,5.77076 0.0064,1.21508 0.02106,1.27685 0.259915,1.10028 0.238859,-0.17655 0.702595,-0.59152 1.339556,-1.1696 0.636948,-0.57811 1.446492,-1.31891 2.097294,-2.08397 0.650801,-0.76503 1.142757,-1.55408 1.450845,-2.21526 0.3081,-0.66117 0.432614,-1.19442 0.519162,-2.65176 0.08653,-1.45738 0.13519,-3.83942 0.15595,-5.69145 0.0207,-1.852 0.0135,-3.17378 0.0273,-4.30923 0.0139,-1.135427 0.0488,-2.084097 0.2046,-3.060307 0.15578,-0.97618 0.4326,-1.97984 0.75108,-2.91101 0.31847,-0.9312 0.67816,-1.78997 1.38088,-2.89771 0.70271,-1.10773 1.7484,-2.46439 2.88035,-3.67943 1.13199,-1.215066 2.35048,-2.288646 3.1363,-3.088305 0.78579,-0.799658 1.13898,-1.325458 1.53017,-2.076636 0.39116,-0.751177 0.82026,-1.727669 1.09029,-2.558475 0.27001,-0.830806 0.38053,-1.516298 0.43585,-2.72442 0.0553,-1.208135 0.0553,-2.938808 0.0173,-7.061651 -0.0381,-4.122857 -0.11414,-10.637498 -0.14861,-13.914013 -0.0336,-3.191045 -0.0279,-3.310705 0.36254,-3.572148 z m 5.09896,0.47117 c 8.2e-4,0.06227 -0.001,0.06625 0.005,0.07857 0.004,0.04211 0.005,0.06099 0.0167,2.535159 0.0116,2.474251 0.0405,7.32054 0.06,11.32023 0.0196,3.999691 0.0298,7.152283 -0.0779,9.502161 -0.10772,2.349878 -0.3332,3.896579 -0.72976,5.272226 -0.39654,1.375659 -0.96432,2.57998 -1.63012,3.65211 -0.6658,1.072143 -1.42916,2.011978 -2.42786,3.074318 -0.99869,1.06232 -2.23272,2.24714 -3.19227,3.22624 -0.95953,0.97911 -1.64498,1.75261 -2.17859,2.87371 -0.53362,1.12107 -0.9149,2.58987 -1.1303,4.65579 -0.21546,2.065917 -0.26473,4.728837 -0.28923,6.956347 -0.0245,2.22746 -0.0241,4.01941 -0.2346,5.51748 -0.21051,1.49803 -0.63165,2.70246 -1.2289,3.84801 -0.59728,1.14558 -1.37075,2.23241 -2.50651,3.39755 -1.13576,1.16512 -2.634106,2.40861 -3.745408,3.53947 -1.111302,1.1309 -1.835274,2.14917 -2.290574,3.27025 -0.455288,1.1211 -0.641853,2.34487 -0.597802,3.47086 0.04404,1.12598 0.318693,2.15398 0.769089,3.04497 0.450383,0.891 1.076585,1.64495 1.693427,2.19326 0.616842,0.5483 1.223939,0.89062 2.065979,1.26759 0.842029,0.37694 1.919309,0.78844 2.996329,1.29023 1.07702,0.50179 2.15349,1.09399 2.81438,1.53215 0.66091,0.43816 0.9061,0.72175 1.06765,0.85638 0.16166,0.13457 0.23962,0.12018 0.24991,-0.61179 0.0103,-0.73188 -0.0493,-2.18063 0.13656,-3.8647 0.18603,-1.68408 0.61728,-3.60327 1.44952,-5.81607 0.83225,-2.21278 2.06534,-4.71954 3.62212,-6.93235 1.55681,-2.21279 3.43693,-4.1317 4.96436,-5.5808 1.5274,-1.44908 2.70227,-2.42791 4.47449,-3.44618 1.77218,-1.01827 4.14147,-2.07544 5.99199,-2.90767 1.85053,-0.83226 3.18225,-1.43973 4.22991,-2.36989 1.04765,-0.93016 1.81131,-2.18332 2.25192,-3.20159 0.4406,-1.01829 0.55824,-1.80164 0.60713,-3.24093 0.049,-1.43926 0.0295,-3.534397 0.0194,-5.198907 -0.0103,-1.66452 -0.008,-2.89839 0.23525,-4.45519 0.24477,-1.55678 0.73413,-3.43614 1.29222,-5.02231 0.55809,-1.586188 1.18464,-2.878624 2.28125,-4.572487 1.09662,-1.693851 2.66304,-3.789014 4.22924,-5.772066 1.56623,-1.983052 3.13204,-3.854044 3.92536,-4.796396 0.79331,-0.942326 0.81864,-0.959094 0.82305,-0.965026 8.6e-4,-0.0011 0.10155,0.05713 0.27125,0.156047 z m 33.65874,19.758067 c 0.289,0.170105 0.52449,0.308575 0.52449,0.308575 -0.008,0.01785 -0.008,0.01322 -0.1846,0.257244 -0.17746,0.243545 -0.54924,0.713559 -1.28358,1.624122 -0.73432,0.910575 -1.83093,2.261365 -3.01565,3.759419 -1.18473,1.498029 -2.45748,3.143412 -3.45618,4.563135 -0.99869,1.41971 -1.72345,2.613953 -2.35987,3.955332 -0.63641,1.34139 -1.18475,2.82951 -1.42953,4.53317 -0.2448,1.70366 -0.18583,3.62289 -0.21525,5.78671 -0.0294,2.16384 -0.14679,4.572277 -0.62646,6.657767 -0.47977,2.08553 -1.32187,3.84755 -2.57515,5.31624 -1.25325,1.46866 -2.9177,2.64368 -5.26755,4.00465 -2.34988,1.36096 -5.38467,2.90792 -7.47019,4.21992 -2.08554,1.31202 -3.22133,2.38947 -4.54314,3.7994 -1.3218,1.40993 -2.82952,3.15221 -3.99467,5.02233 -1.16515,1.8701 -1.98765,3.86751 -2.44785,5.87468 -0.46017,2.00719 -0.55833,4.0245 -0.61713,7.001 -0.0585,2.97649 -0.0779,6.91212 -0.1072,11.50417 -0.0289,4.59203 -0.0687,9.84004 -0.0393,14.95099 0.0295,5.11097 0.12698,10.08427 0.0779,12.4245 -0.0489,2.34027 0.16248,2.57464 -0.82238,1.29291 -0.57871,-0.75314 -1.53718,-1.96799 -2.25192,-2.76107 -0.71476,-0.7931 -1.1692,-1.18219 -1.46886,-1.44952 -0.41964,-0.37443 -0.38169,-0.47983 -0.44051,-1.8114 -0.0583,-1.33158 -0.079,-3.7987 -0.0687,-7.60745 0.0103,-3.80872 0.0494,-8.95873 -0.13655,-12.50315 -0.18603,-3.5444 -0.59764,-5.48267 -1.22425,-7.02964 -0.62664,-1.54703 -1.46885,-2.70265 -2.64379,-3.63279 -1.17493,-0.93017 -2.682399,-1.63473 -4.141281,-2.3299 -1.458882,-0.69516 -2.869053,-1.38101 -4.171273,-2.46783 -1.302219,-1.08681 -2.496282,-2.57486 -3.27957,-3.92602 -0.783289,-1.35118 -1.155263,-2.56504 -1.360882,-3.41687 -0.205605,-0.85184 -0.244996,-1.34173 -0.264575,-3.60347 -0.01952,-2.26173 -0.01952,-6.2957 -0.02927,-9.93798 -0.01027,-3.64233 -0.02979,-6.89247 -0.0493,-9.18362 -0.01951,-2.29113 -0.0389,-3.62266 -0.303221,-4.72908 -0.264357,-1.1064 -0.773274,-1.98756 -1.448855,-2.76107 -0.675572,-0.773497 -1.517535,-1.439127 -2.408527,-1.928697 -0.890993,-0.48953 -1.8315,-0.803 -3.074972,-0.95966 -1.243471,-0.1567 -2.790018,-0.15687 -4.454509,-0.26457 -1.664496,-0.10773 -3.446253,-0.32269 -4.973671,-0.6458 -1.52742,-0.32311 -2.800392,-0.75407 -3.848048,-1.21426 -1.047653,-0.46018 -1.87008,-0.95007 -2.761075,-1.63546 -0.890994,-0.68539 -1.85067,-1.56619 -3.054977,-3.09362 -1.20431,-1.5274 -2.653,-3.70092 -3.37754,-4.787728 -0.724567,-1.086818 -0.724812,-1.086843 -0.736419,-1.100312 -0.01168,-0.01322 -0.03461,-0.04083 -0.04132,-0.0579 -0.0065,-0.01682 0.0104,-0.02876 0.636453,-0.411185 l -20.204577,12.257875 0.143293,21.490137 c 0.03233,0.0358 0.06633,0.0741 0.102623,0.11466 0.490511,0.54739 1.357752,1.50016 2.495164,2.6518 1.137414,1.15162 2.544919,2.50225 3.774739,3.56145 1.229818,1.05923 2.282336,1.82694 3.426853,2.62315 1.144517,0.79616 2.381412,1.62055 3.732085,2.50914 1.350676,0.88861 2.814597,1.84093 4.314558,2.82906 1.499961,0.98813 3.035417,2.01198 4.49983,3.07831 1.464409,1.06631 2.857925,2.17525 3.82472,3.09229 0.966793,0.91704 1.507272,1.64213 1.820057,2.00468 0.312787,0.36254 0.398088,0.36255 0.469177,-0.57583 0.07109,-0.93835 0.127954,-2.81481 0.149287,-4.91901 0.02134,-2.1042 0.0068,-4.43606 -0.0147,-6.55448 -0.02134,-2.11842 -0.04953,-4.02354 -0.120624,-5.28889 -0.07109,-1.26536 -0.184598,-1.89069 -0.525825,-2.67978 -0.341225,-0.78907 -0.910137,-1.74164 -1.308229,-2.34589 -0.398092,-0.60423 -0.625565,-0.86037 -0.831722,-0.98833 -0.206155,-0.12775 -0.390977,-0.12775 -0.76774,-0.0641 -0.376769,0.0641 -0.945235,0.19215 -1.57081,0.17793 -0.625576,-0.0149 -1.308001,-0.17082 -1.983337,-0.51915 -0.675336,-0.34833 -1.343994,-0.88839 -1.870042,-1.59215 -0.526048,-0.70376 -0.909471,-1.57145 -1.072973,-2.46716 -0.163504,-0.89572 -0.106642,-1.81963 0.170608,-2.63712 0.277244,-0.81751 0.774848,-1.52816 1.322227,-2.0613 0.547374,-0.53317 1.144499,-0.88883 1.812726,-1.15896 0.668225,-0.27013 1.40752,-0.45518 2.175272,-0.45518 0.767751,2e-5 1.563472,0.18527 2.245916,0.50517 0.682442,0.3199 1.251355,0.77462 1.756079,1.35753 0.504722,0.58294 0.945237,1.29403 1.16561,1.96935 0.220372,0.67534 0.220818,1.31465 0.163949,1.84071 -0.05686,0.52607 -0.171058,0.93881 -0.163949,1.23026 0.0071,0.29147 0.135054,0.46184 0.447849,0.80307 0.312792,0.34122 0.810839,0.85306 1.272908,1.49284 0.46207,0.63979 0.888144,1.40751 1.328889,2.26057 0.440747,0.85307 0.896147,1.79117 1.123626,2.80773 0.227478,1.01655 0.22748,2.11187 0.213261,7.25156 -0.0142,5.13972 -0.04287,14.32345 -0.05,18.97967 -0.0071,4.65619 0.0071,4.7844 0.298566,4.97632 0.291463,0.19195 0.860152,0.44762 1.364877,0.78175 0.504726,0.33411 0.94546,0.74686 1.343552,1.25159 0.398091,0.50471 0.753299,1.10161 1.058979,1.7414 0.305677,0.6398 0.561812,1.32223 0.668444,2.06865 0.106641,0.74641 0.06399,1.55702 -0.127955,2.39588 -0.191938,0.83883 -0.532927,1.70561 -1.016325,2.50183 -0.4834,0.79618 -1.1094,1.52125 -1.720759,2.02598 -0.611357,0.50471 -1.208261,0.78929 -1.50683,0.96701 -0.298565,0.1777 -0.298568,0.24901 -0.234585,0.96701 0.06398,0.718 0.191708,2.08263 0.41919,3.14893 0.227481,1.06632 0.554698,1.83406 1.201599,2.6658 0.646904,0.83172 1.613672,1.72762 2.665776,2.39584 1.052102,0.66824 2.189258,1.10853 3.340882,1.32889 1.151626,0.22038 2.317426,0.22082 4.051978,0.20662 1.734555,-0.0149 4.038181,-0.0427 6.028654,0.0426 1.99046,0.0853 3.667633,0.28414 5.338206,0.6751 1.670574,0.39098 3.334201,0.97434 5.104295,2.01932 1.77009,1.04502 3.647,2.55182 4.95502,3.93804 1.30801,1.38621 2.04686,2.6511 2.62977,3.71742 0.58294,1.06632 1.00944,1.934 1.36489,3.00032 0.35544,1.06633 0.64022,2.33143 0.8677,3.61813 0.22747,1.2867 0.39764,2.59489 0.45452,4.4645 0.0567,1.86964 0,4.30073 -0.0214,9.04232 -0.0214,4.7416 -0.006,11.79339 -0.006,15.80272 0,4.00932 -0.0149,4.97611 -0.0214,5.4595 -0.001,0.10772 -0.004,0.19155 -0.005,0.25791 l 3.86071,2.26857 1.98001,-1.20093 c -0.008,-0.44795 -0.0149,-1.2824 -0.0288,-2.83304 -0.0284,-3.35532 -0.0849,-10.06567 -0.11324,-17.92801 -0.0284,-7.86235 -0.0284,-16.87589 -0.0426,-22.61977 -0.0132,-5.74387 -0.0429,-8.21812 0.31258,-10.67778 0.35546,-2.45964 1.09473,-4.90477 2.17527,-7.00898 1.08055,-2.10419 2.5025,-3.86691 4.03799,-5.43084 1.53551,-1.56391 3.18426,-2.92901 4.93302,-3.91004 1.74876,-0.981 3.59699,-1.5779 5.97134,-2.01864 2.37435,-0.44074 5.27468,-0.72532 7.42152,-1.05232 2.14687,-0.32701 3.54057,-0.69687 5.04763,-1.43619 1.50707,-0.73932 3.1274,-1.84803 4.42119,-3.21293 1.29381,-1.36487 2.26081,-2.98564 2.92904,-4.60644 0.66821,-1.62082 1.03787,-3.2418 1.2369,-4.67777 0.19905,-1.43597 0.22727,-2.68687 0.52584,-4.15129 0.29855,-1.46442 0.86724,-3.14183 1.79138,-4.70576 0.92416,-1.56393 2.20372,-3.01455 3.62547,-4.06663 1.42176,-1.05211 2.9861,-1.70589 4.62111,-2.10396 1.63503,-0.39812 3.3411,-0.54005 4.86239,-0.65378 1.52127,-0.11363 2.85746,-0.19948 4.23657,-0.69711 1.3791,-0.49761 2.80106,-1.40752 4.08065,-2.68711 1.27958,-1.27958 2.41695,-2.92876 3.79606,-4.90502 1.37911,-1.97625 2.99964,-4.27902 4.15127,-5.78606 1.15161,-1.50707 1.83381,-2.21806 2.24393,-2.50717 0.0393,-0.0277 0.0761,-0.0514 0.11067,-0.0706 l -0.0946,-14.178577 z m 7.39286,13.346215 c 0.35439,0.0051 0.72684,0.04506 1.12896,0.105281 0.80427,0.120687 1.72912,0.321607 2.49316,0.965001 0.76407,0.64341 1.36729,1.72965 1.6488,2.75508 0.28151,1.02545 0.24071,1.99013 -0.0207,2.79441 -0.26139,0.80425 -0.74359,1.44779 -1.24626,1.99065 -0.50267,0.54289 -1.02519,0.98513 -1.22626,1.91003 -0.20106,0.92491 -0.0808,2.33272 -0.0606,3.840727 0.02,1.50798 -0.0605,3.11653 -0.32189,4.72508 -0.26136,1.60856 -0.70362,3.2165 -1.78939,4.82504 -1.08575,1.60856 -2.81496,3.21716 -4.60446,4.12196 -1.78949,0.90482 -3.639,1.1057 -5.60946,1.56814 -1.97047,0.46246 -4.06134,1.18682 -5.58947,2.27259 -1.52811,1.08576 -2.4932,2.53306 -2.95567,4.20191 -0.46246,1.66887 -0.42218,3.55863 -0.4825,6.07199 -0.0602,2.51333 -0.22152,5.65044 -0.76441,8.30454 -0.54288,2.65409 -1.46783,4.82543 -2.47319,6.41387 -1.00534,1.58843 -2.09064,2.59374 -3.86002,4.02131 -1.7694,1.42758 -4.22227,3.27685 -5.93136,4.70443 -1.70908,1.42758 -2.67469,2.43342 -3.33822,3.2176 -0.66353,0.78415 -1.02511,1.34696 -1.95001,2.63377 -0.92491,1.28683 -2.413,3.29723 -3.15696,4.30256 -0.59282,0.80113 -0.71349,0.96403 -0.75306,0.96168 -3.9e-4,-5e-5 -0.001,1.1e-4 -0.001,0 -3.3e-4,-1.1e-4 -0.001,-5.2e-4 -0.001,-6.6e-4 -0.006,-0.004 -0.0116,-0.0132 -0.0167,-0.0253 -0.0299,-0.07 -0.0895,-0.21019 -0.098,-0.47918 -0.008,-0.26899 0.034,-0.66711 0.14052,-1.56281 0.10669,-0.89571 0.27746,-2.28877 0.45519,-3.44751 0.1777,-1.15874 0.36254,-2.08308 0.81038,-3.09963 0.44786,-1.01655 1.15828,-2.12551 1.90471,-3.11361 0.74641,-0.98814 1.52882,-1.85495 2.78707,-2.86438 1.25823,-1.00946 2.99231,-2.16105 4.42118,-3.22027 1.42887,-1.05921 2.55226,-2.02598 3.50482,-3.19894 0.9526,-1.17295 1.73475,-2.55247 2.24659,-3.78939 0.51184,-1.23694 0.7533,-2.33144 0.90969,-3.42619 0.15637,-1.09475 0.22748,-2.1897 0.2346,-3.54747 0.008,-1.3578 -0.0501,-2.9781 -0.0501,-4.20793 0,-1.22982 0.0573,-2.06864 0.16397,-2.79374 0.10669,-0.7251 0.26279,-1.33665 0.48316,-2.16127 0.22037,-0.82462 0.50473,-1.86226 0.89571,-2.78639 0.39098,-0.92416 0.88858,-1.73453 1.42884,-2.4312 0.54028,-0.69667 1.12341,-1.27978 1.77741,-1.86272 0.65402,-0.58292 1.37888,-1.16561 2.35988,-1.6561 0.98101,-0.49052 2.21814,-0.88859 3.69676,-1.17294 1.47863,-0.28435 3.19849,-0.45496 4.61313,-0.85307 1.41467,-0.39806 2.52359,-1.02384 3.36954,-1.69209 0.84595,-0.66823 1.4293,-1.37908 1.8274,-2.23923 0.39808,-0.86017 0.61135,-1.86983 0.72509,-2.97168 0.11362,-1.10185 0.12775,-2.29612 0.142,-3.62546 0.0149,-1.329337 0.0282,-2.793267 0.0353,-3.589477 0.008,-0.79618 0.008,-0.92469 -0.0994,-1.05564 -0.10682,-0.13093 -0.32053,-0.26488 -0.64846,-0.57314 -0.32791,-0.30825 -0.77035,-0.79068 -1.1323,-1.33355 -0.36192,-0.54288 -0.64298,-1.14598 -0.78372,-1.91003 -0.14069,-0.76404 -0.14101,-1.68855 0.18061,-2.55314 0.3217,-0.86459 0.96538,-1.66882 1.60879,-2.25191 0.64342,-0.58311 1.28648,-0.94546 1.95,-1.106296 0.33178,-0.08037 0.66864,-0.110416 1.023,-0.105409 z m 31.58145,31.656079 -6.8e-4,6.5e-4 -6.5e-4,6.7e-4 c -0.35187,0.41722 -0.92518,1.13141 -1.78476,2.29258 -0.85955,1.16117 -2.0053,2.76972 -3.24689,4.30787 -1.24161,1.53819 -2.57877,3.00588 -4.12195,4.15195 -1.54321,1.14609 -3.29246,1.97033 -5.26293,2.44785 -1.97045,0.47753 -4.16195,0.60818 -5.75538,0.77908 -1.59347,0.17091 -2.5891,0.38222 -3.54416,0.7944 -0.95508,0.41218 -1.86969,1.02526 -2.64379,1.86471 -0.77411,0.83947 -1.40721,1.90479 -1.8194,3.12629 -0.4122,1.22148 -0.60336,2.59897 -0.73908,3.92602 -0.13573,1.32703 -0.21604,2.60372 -0.54783,3.97602 -0.33176,1.37227 -0.9149,2.83991 -1.58346,4.28255 -0.66855,1.44265 -1.42281,2.8602 -2.25723,3.956 -0.83444,1.09581 -1.74884,1.86983 -2.14596,2.26193 -0.39712,0.39208 -0.27681,0.40259 2.3572,0.39254 2.63402,-0.0103 7.78131,-0.0406 10.37056,-0.0907 2.58922,-0.0501 2.62062,-0.12017 2.91834,-0.47916 0.29773,-0.3589 0.86215,-1.00655 1.43218,-1.46552 0.57006,-0.45896 1.14585,-0.72887 1.71809,-0.90302 0.57226,-0.17417 1.14073,-0.25216 1.72011,-0.24859 0.57936,0.004 1.16959,0.0888 1.73475,0.28791 0.56514,0.19905 1.10541,0.51183 1.64211,1.00233 0.53672,0.4905 1.06986,1.15871 1.37553,1.93002 0.30568,0.77131 0.38388,1.64523 0.3519,2.49117 -0.032,0.84594 -0.1746,1.66343 -0.5265,2.39919 -0.35186,0.73577 -0.91346,1.39021 -1.68476,1.90204 -0.77131,0.51183 -1.75229,0.88147 -2.81506,0.93836 -1.06276,0.0567 -2.20681,-0.19905 -3.06698,-0.68244 -0.86016,-0.4834 -1.4364,-1.19472 -1.79541,-1.55015 -0.35897,-0.35543 -0.50089,-0.35501 -2.64776,-0.41187 -2.14688,-0.0567 -6.29834,-0.17112 -8.37055,-0.18528 -2.07218,-0.0132 -2.06508,0.0714 -1.79139,0.41253 0.27367,0.34123 0.81394,0.93836 1.31156,1.62081 0.49762,0.68243 0.95212,1.45037 1.31823,2.31055 0.36609,0.86016 0.64355,1.81273 0.8497,2.55915 0.20616,0.74641 0.34123,1.2862 0.57581,2.00066 0.23461,0.71445 0.56893,1.60347 1.03101,2.33921 0.46205,0.73576 1.05184,1.31822 1.84803,1.90471 0.7962,0.58646 1.79849,1.1767 3.08163,1.52148 1.28316,0.34477 2.84682,0.44431 4.26858,0.44786 1.42176,0.004 2.70152,-0.0887 3.94202,-0.0887 1.24048,0 2.44206,0.0922 3.46218,0.17393 1.0201,0.0819 1.85848,0.1529 2.84306,0.29856 0.98456,0.14564 2.11527,0.36588 3.26689,0.65379 1.15162,0.28792 2.32455,0.64378 3.19893,0.96368 0.87438,0.3199 1.44995,0.60403 1.79473,0.81373 0.0559,0.034 0.10567,0.0659 0.14992,0.0993 z m -150.218441,7.49747 0.237919,35.68474 c 0.206327,-0.15092 0.56894,-0.40018 1.480171,-0.89502 1.073439,-0.58293 2.907907,-1.50728 4.365209,-2.11862 1.457303,-0.61136 2.537581,-0.90993 3.746081,-1.1303 1.208496,-0.22039 2.544913,-0.3621 3.881368,-0.4332 1.336456,-0.071 2.672867,-0.071 4.15861,-0.0641 1.485742,0.008 3.120728,0.0214 4.201261,0.0426 1.080533,0.0213 1.606573,0.0496 1.876705,0.0132 0.270133,-0.0357 0.284568,-0.13473 0.497834,-0.54714 0.213266,-0.41231 0.625341,-1.13739 1.122958,-1.74873 0.497618,-0.61136 1.080303,-1.10898 1.592135,-1.45021 0.511833,-0.34122 0.95279,-0.52648 1.137618,-0.73973 0.184828,-0.2133 0.113755,-0.45475 -0.127954,-1.12298 -0.241702,-0.66823 -0.653995,-1.76273 -1.279571,-2.97834 -0.625578,-1.21559 -1.464612,-2.55223 -2.43852,-3.7394 -0.97391,-1.18718 -2.082838,-2.2248 -3.604129,-3.42619 -1.521288,-1.20138 -3.454601,-2.56668 -5.473502,-3.91737 -2.018901,-1.35067 -4.122832,-2.68663 -5.70809,-3.71741 -1.585259,-1.03079 -2.65199,-1.75629 -3.725423,-2.5738 -1.07343,-0.81752 -2.153935,-1.7272 -3.156275,-2.61579 -1.002343,-0.88862 -1.926246,-1.75564 -2.509164,-2.27458 -0.101929,-0.0908 -0.193112,-0.17126 -0.275238,-0.24859 z m 31.126257,29.8167 c -2.182104,-2.1e-4 -3.951206,1.71459 -3.951345,3.83007 -2.43e-4,2.11573 1.768973,3.83093 3.951345,3.83071 2.182115,-1.3e-4 3.950923,-1.71524 3.950679,-3.83071 -1.39e-4,-2.11524 -1.768835,-3.82994 -3.950679,-3.83007 z m 72.503754,6.23859 c -1.06608,-0.0205 -2.14415,-0.001 -3.11429,0.032 -1.94068,0.0675 -3.44816,0.19504 -4.80239,0.4865 -1.35423,0.29146 -2.55536,0.74686 -3.61811,1.27292 -1.06277,0.52605 -1.98691,1.12273 -2.83639,1.84073 -0.8495,0.71796 -1.62434,1.55701 -2.27126,2.27856 -0.64689,0.72153 -1.16581,1.32578 -1.59944,2.07929 -0.43364,0.75356 -0.78174,1.65632 -1.10165,2.58047 -0.31988,0.92416 -0.61158,1.86959 -0.84972,2.81507 -0.23814,0.94547 -0.42275,1.8909 -0.53648,3.20959 -0.11363,1.31869 -0.15637,3.01029 -0.18128,6.20925 -0.0248,3.19898 -0.0322,7.90508 -0.0501,13.18692 -0.0178,5.28185 -0.046,11.13936 -0.046,16.22924 0,5.08991 0.0279,9.41203 0.0279,11.57479 0,0.65998 -0.004,1.11901 -0.0279,1.45086 l 68.04592,-41.28286 -0.006,-0.82907 c -0.079,0.0103 -0.1821,-0.0212 -0.31926,-0.07 -0.40876,-0.14563 -1.12002,-0.44428 -2.00863,-0.77839 -0.88862,-0.33411 -1.95467,-0.70378 -3.56483,-1.04499 -1.61014,-0.34122 -3.76404,-0.65445 -5.57678,-0.79306 -1.81274,-0.1387 -3.28445,-0.10284 -5.20027,-0.14201 -1.91583,-0.0389 -4.27568,-0.1529 -5.87871,-0.34121 -1.60302,-0.18838 -2.44916,-0.4514 -3.28088,-0.79974 -0.83174,-0.34835 -1.64901,-0.78172 -2.53051,-1.45352 -0.88148,-0.67178 -1.82715,-1.58213 -2.63045,-2.54182 -0.80328,-0.95968 -1.46418,-1.96911 -1.91203,-2.943 -0.44784,-0.97391 -0.68264,-1.91224 -0.8817,-2.81507 -0.19906,-0.90282 -0.36232,-1.7696 -0.83507,-2.74709 -0.47272,-0.97743 -1.25444,-2.06506 -2.12526,-2.95367 -0.87085,-0.88859 -1.83051,-1.57836 -2.96434,-2.17194 -1.13386,-0.59357 -2.44205,-1.09097 -4.28324,-1.33623 -0.92041,-0.12274 -1.97426,-0.18215 -3.04032,-0.20258 z m -86.656355,0.0493 c -2.040223,0.0214 -3.590118,0.0357 -5.040314,0.21327 -1.450196,0.17775 -2.800837,0.51894 -3.881368,0.85306 -1.080535,0.33411 -1.890467,0.66133 -2.907029,1.22293 -1.01656,0.56159 -2.239692,1.35776 -3.021657,1.94069 -0.781964,0.5829 -1.123173,0.95232 -1.450181,1.25089 -0.135862,0.12403 -0.269028,0.23612 -0.393868,0.32391 l 0.127955,19.18223 25.840692,15.18493 c 0.08145,-0.0818 0.197056,-0.1727 0.343885,-0.28457 0.597146,-0.45498 1.706304,-1.25113 2.971674,-2.32457 1.265368,-1.07341 2.68687,-2.42428 4.001995,-3.93134 1.315125,-1.50706 2.523811,-3.17049 3.611458,-4.69175 1.087648,-1.5213 2.054417,-2.90014 2.900365,-4.06598 0.845947,-1.16584 1.571027,-2.11863 2.175271,-2.84371 0.604243,-0.7251 1.087407,-1.22275 1.314896,-1.51417 0.227486,-0.29143 0.199269,-0.37676 -0.01403,-0.40521 -0.213267,-0.0284 -0.611557,2.5e-4 -1.670777,-0.142 -1.059219,-0.14234 -2.779273,-0.45496 -4.471171,-1.13029 -1.691897,-0.67535 -3.355312,-1.71342 -4.585132,-2.80106 -1.229821,-1.08765 -2.025986,-2.22458 -2.623123,-3.31223 -0.597139,-1.08767 -0.995667,-2.12571 -1.230255,-3.46217 -0.234589,-1.33645 -0.30545,-2.97167 -0.44052,-3.84605 -0.13507,-0.87439 -0.333883,-0.98812 -0.71776,-1.17294 -0.383876,-0.18485 -0.952562,-0.44074 -1.599465,-1.06631 -0.646904,-0.6256 -1.372429,-1.62035 -1.742084,-2.22459 -0.369656,-0.60427 -0.383626,-0.81798 -1.656114,-0.91038 -1.272488,-0.0924 -3.803155,-0.0641 -5.843379,-0.0426 z m 37.124252,20.92834 c -1.018655,-6.5e-4 -1.934007,0.16863 -2.845712,0.52583 -1.215607,0.4763 -2.424075,1.2869 -3.518827,2.24659 -1.094755,0.95969 -2.075732,2.06861 -3.433517,3.81738 -1.357783,1.74878 -3.092733,4.13747 -4.599796,6.14928 -1.507063,2.01178 -2.786162,3.64632 -4.229251,5.0823 -1.44309,1.43598 -3.050091,2.67333 -3.981337,3.40553 -0.350811,0.27583 -0.605699,0.4797 -0.831719,0.60848 l 36.294532,21.32817 c 0.004,-0.18066 0.0116,-0.39253 0.0173,-0.64645 0.0284,-1.26536 -4.6e-4,-3.58232 -0.0149,-6.70308 -0.0149,-3.12078 -0.0149,-7.04495 0.0213,-10.94768 0.0357,-3.9027 0.10683,-7.78382 0.0288,-10.31454 -0.0783,-2.53073 -0.3059,-3.7112 -0.81773,-5.17561 -0.51185,-1.46442 -1.30778,-3.21291 -2.38119,-4.64178 -1.07344,-1.42886 -2.4243,-2.53802 -3.952691,-3.31288 -1.528393,-0.77487 -3.234018,-1.21561 -4.698434,-1.36488 -0.366107,-0.0374 -0.717423,-0.0565 -1.056979,-0.0566 z" /></g></svg>
